<svg version="1.2" baseProfile="tiny" xmlns="http://www.w3.org/2000/svg" width="1591.4" height="455.1" overflow="visible" xml:space="preserve"><switch><g><g fill="#000000"><path d="M227.5 93.7v267.7c0 29.9-9.5 53-28.4 69.3-19 16.3-47.3 24.4-85 24.4S48 447 28.8 430.7C9.6 414.4 0 391.3 0 361.4V93.7c0-29.9 9.5-53 28.4-69.3C47.4 8.1 75.7 0 113.4 0s66.1 8.1 85.3 24.4c19.2 16.3 28.8 39.4 28.8 69.3zm-46.8 267.7V93.7c0-35.7-22.3-53.5-66.9-53.5-44.6 0-66.9 17.8-66.9 53.5v267.7c0 35.7 22.3 53.5 66.9 53.5 44.6 0 66.9-17.8 66.9-53.5zM564.2 361.4c0 62.5-37.7 93.7-113.1 93.7-75.4 0-113.1-31.2-113.1-93.7v-56.9h46.8v59.6c0 16.1 5.6 28.6 16.7 37.5 11.1 8.9 27.7 13.4 49.5 13.4 21.9 0 38.4-4.5 49.5-13.4 11.1-8.9 16.7-21.1 16.7-36.5 0-15.4-1.7-27.7-5-36.8-3.3-9.1-10.2-18.8-20.4-29.1L374.1 184c-13.8-13.8-23.3-27.3-28.4-40.5-5.1-13.2-7.7-29.8-7.7-49.9 0-29.9 9.3-53 27.8-69.3C384.2 8.1 412.2 0 449.7 0c71.8 0 107.7 31.2 107.7 93.7v56.9h-46.8V91c0-16.1-5.3-28.5-15.7-37.5-10.5-8.9-26.2-13.4-47.2-13.4-21 0-36.7 4.5-47.2 13.4s-15.7 21.2-15.7 36.8c0 15.6 1.6 27.9 4.7 36.8 3.1 8.9 10 18.3 20.7 28.1L530 270.4c12.9 14.3 21.9 28 26.8 41.2 4.9 13.1 7.4 29.7 7.4 49.8zM677.9 361.4V10h46.8v351.4c0 17 3.7 30.1 11 39.5 7.4 9.4 20.9 14.1 40.5 14.1s37.7-7.6 54.2-22.8c16.5-15.2 24.8-29.9 24.8-44.2V10H902v435h-20l-17.4-42.8c-9.8 16.1-22.4 28.9-37.8 38.5-15.4 9.6-32.2 14.4-50.5 14.4-65.6 0-98.4-31.2-98.4-93.7zM1082.8 445H1036V10h20.1l16.7 43.5c21.4-35.7 51.1-53.5 89-53.5 65.6 0 98.4 31.2 98.4 93.7V445h-46.8V93.7c0-16.9-3.7-30.1-11-39.5-7.4-9.4-20.9-14.1-40.5-14.1s-37.7 7.6-54.2 22.8c-16.5 15.2-24.8 29.9-24.8 44.2V445zM1501.7 445h-46.8V321.9c-60.7-6.7-91-37.5-91-92.4V10h46.8v219.5c0 35.7 22.3 53.5 66.9 53.5 44.6 0 66.9-17.8 66.9-53.5V10h46.8v219.5c0 54.9-29.9 85.7-89.7 92.4V445z"/></g></g></switch></svg>
